<?xml version="1.0" encoding="UTF-8"?>
<svg width="428.25" height="436.73" viewBox="-2100 -1470 2498.117 2547.5848" xmlns="http://www.w3.org/2000/svg" xmlns:xlink="http://www.w3.org/1999/xlink">
 <defs>
  <path id="f" d="m0,0a31.5,35 0 0,0 0-70 31.5,35 0 0,0 0,70m0-13a18.5,22 0 0,0 0-44 18.5,22 0 0,0 0,44" fill-rule="evenodd"/>
  <g id="g">
   <use width="4200" height="2940" xlink:href="#k"/>
   <path d="m28 0c0-10 0-32-15-32h-19c22 0 22 22 22 32"/>
  </g>
  <path id="y" d="m-31.5,0h33a30,30 0 0,0 30-30v-10a30,30 0 0,0 -30-30h-33zm13-13h19a19,19 0 0,0 19-19v-6a19,19 0 0,0 -19-19h-19z" fill-rule="evenodd"/>
  <path id="l" transform="translate(-31.5)" d="m0 0h63v-13h-51v-18h40v-12h-40v-14h48v-13h-60z"/>
  <path id="v" d="m-31.5 0h12v-48l14 48h11l14-48v48h12v-70h-17.5l-14 48-14-48h-17.5z"/>
  <path id="x" d="m-26.25 0h52.5v-12h-40.5v-16h33v-12h-33v-11h39.25v-12h-51.25z"/>
  <path id="k" d="m-31.5,0h13v-26h28a22,22 0 0,0 0-44h-40zm13-39h27a9,9 0 0,0 0-18h-27z" fill-rule="evenodd"/>
  <g id="w">
   <use width="4200" height="2940" clip-path="url(#r)" xlink:href="#f"/>
   <path d="m5-35h26.5v10h-26.5z"/>
   <path d="m21.5-35h10v35h-10z"/>
  </g>
  <path id="j" d="m-15.75-22c0,7 6.75,10.5 16.75,10.5s14.74-3.25 14.75-7.75c0-14.25-46.75-5.25-46.5-30.25 .25-21.5 24.75-20.5 33.75-20.5s26,4 25.75,21.25h-15.25c0-7.5-7-10.25-15-10.25-7.75,0-13.25,1.25-13.25,8.5-.25,11.75 46.25,4 46.25,28.75 0,18.25-18,21.75-31.5,21.75-11.5,0-31.55-4.5-31.5-22z"/>
  <g id="d">
   <g id="e">
    <path id="m" transform="matrix(.95106,.30902,-.30902,.95106,0,-1)" d="m.5,1-.5-1v1z"/>
    <use transform="scale(-1,1)" width="4200" height="2940" xlink:href="#m"/>
   </g>
   <use transform="rotate(72)" width="4200" height="2940" xlink:href="#e"/>
   <use transform="matrix(.30902,-.95106,.95106,.30902,0,0)" width="4200" height="2940" xlink:href="#e"/>
   <use transform="matrix(-.80902,.58779,-.58779,-.80902,0,0)" width="4200" height="2940" xlink:href="#e"/>
   <use transform="matrix(-.80902,-.58779,.58779,-.80902,0,0)" width="4200" height="2940" xlink:href="#e"/>
  </g>
  <use id="c" transform="scale(31.5)" width="4200" height="2940" xlink:href="#d"/>
  <use id="b" transform="scale(26.25)" width="4200" height="2940" xlink:href="#d"/>
  <use id="a" transform="scale(21)" width="4200" height="2940" xlink:href="#d"/>
  <use id="h" transform="scale(15)" width="4200" height="2940" xlink:href="#d"/>
  <use id="n" transform="scale(10.5)" width="4200" height="2940" xlink:href="#d"/>
  <clipPath id="r">
   <path d="m-31.5 0v-70h63v70zm31.5-47v12h31.5v-12z"/>
  </clipPath>
  <clipPath id="t">
   <path transform="matrix(6.0152 0 0 6.0152 -1390.6 -1801.7)" d="m470.9 299.52a239.72 239.72 0 1 1 -479.44 0 239.72 239.72 0 1 1 479.44 0z"/>
  </clipPath>
  <clipPath id="s">
   <use width="4200" height="2940" xlink:href="#u"/>
  </clipPath>
  <linearGradient id="i">
   <stop stop-color="#eee" offset="0"/>
   <stop stop-color="#eee" stop-opacity="0" offset="1"/>
  </linearGradient>
  <linearGradient id="q" x1="217.75" x2="231.18" y1="100.29" y2="515.5" gradientUnits="userSpaceOnUse">
   <stop stop-color="#ededed" offset="0"/>
   <stop stop-color="#cccccf" offset="1"/>
  </linearGradient>
  <linearGradient id="p" x1="370.53" x2="378" y1="-73.678" y2="465.56" gradientUnits="userSpaceOnUse" xlink:href="#i"/>
  <linearGradient id="o" x2="0" y1="536.78" y2="446.34" gradientUnits="userSpaceOnUse" xlink:href="#i"/>
 </defs>
 <g transform="matrix(.79417 0 0 .79417 -850.94 -196.21)">
  <path transform="matrix(6.5609 0 0 6.6908 -1516.7 -2004)" d="m470.9 299.52c0 132.39-107.33 239.72-239.72 239.72s-239.72-107.33-239.72-239.72 107.33-239.72 239.72-239.72 239.72 107.33 239.72 239.72z" fill="url(#q)"/>
  <g transform="matrix(1.0518 0 0 1.0648 1.1941e-6 1.827e-6)" clip-path="url(#t)">
   <path d="m-2100-1470h4200v2940h-4200z" fill="#00923f"/>
   <path d="m-1743 0 1743 1113 1743-1113-1743-1113z" fill="#f8c300"/>
   <path id="u" d="m735 0a735 735 0 1 0 -1470 0 735 735 0 1 0 1470 0" fill="#28166f"/>
   <path d="m-2205 1470a1785 1785 0 0 1 3570 0h-105a1680 1680 0 1 0 -3360 0z" clip-path="url(#s)" fill="#fff"/>
   <g transform="translate(-420,1470)" fill="#00923f">
    <g transform="matrix(.99255,-.12187,.12187,.99255,0,0)">
     <use transform="translate(0,-1697.5)" width="4200" height="2940" xlink:href="#f"/>
     <use transform="matrix(.99863 .05234 -.05234 .99863 88.84 -1695.2)" width="4200" height="2940" xlink:href="#g"/>
     <use transform="matrix(.99452 .10453 -.10453 .99452 177.44 -1688.2)" width="4200" height="2940" xlink:href="#y"/>
     <use transform="matrix(.98769 .15643 -.15643 .98769 265.55 -1676.6)" width="4200" height="2940" xlink:href="#l"/>
     <use transform="matrix(.97815 .20791 -.20791 .97815 352.93 -1660.4)" width="4200" height="2940" xlink:href="#v"/>
    </g>
    <use transform="matrix(.98556 .16935 -.16935 .98556 287.47 -1673)" width="4200" height="2940" xlink:href="#x"/>
    <g transform="rotate(14.5)">
     <use transform="translate(0,-1697.5)" width="4200" height="2940" xlink:href="#k"/>
     <use transform="matrix(.99863 .05234 -.05234 .99863 88.84 -1695.2)" width="4200" height="2940" xlink:href="#g"/>
     <use transform="matrix(.99452 .10453 -.10453 .99452 177.44 -1688.2)" width="4200" height="2940" xlink:href="#f"/>
     <use transform="matrix(.98769 .15643 -.15643 .98769 265.55 -1676.6)" width="4200" height="2940" xlink:href="#w"/>
     <use transform="matrix(.97815 .20791 -.20791 .97815 352.93 -1660.4)" width="4200" height="2940" xlink:href="#g"/>
     <use transform="matrix(.96593 .25882 -.25882 .96593 439.35 -1639.7)" width="4200" height="2940" xlink:href="#l"/>
     <use transform="matrix(.95106 .30902 -.30902 .95106 524.56 -1614.4)" width="4200" height="2940" xlink:href="#j"/>
     <use transform="matrix(.93358 .35837 -.35837 .93358 608.33 -1584.8)" width="4200" height="2940" xlink:href="#j"/>
     <use transform="matrix(.91355 .40674 -.40674 .91355 690.44 -1550.7)" width="4200" height="2940" xlink:href="#f"/>
    </g>
   </g>
   <g fill="#fff">
    <use transform="translate(-600,-132)" width="4200" height="2940" xlink:href="#c"/>
    <use transform="translate(-535,177)" width="4200" height="2940" xlink:href="#c"/>
    <use transform="translate(-625,243)" width="4200" height="2940" xlink:href="#a"/>
    <use transform="translate(-463,132)" width="4200" height="2940" xlink:href="#h"/>
    <use transform="translate(-382,250)" width="4200" height="2940" xlink:href="#b"/>
    <use transform="translate(-404,323)" width="4200" height="2940" xlink:href="#b"/>
    <use transform="translate(228,-228)" width="4200" height="2940" xlink:href="#c"/>
    <use transform="translate(515,258)" width="4200" height="2940" xlink:href="#c"/>
    <use transform="translate(617,265)" width="4200" height="2940" xlink:href="#a"/>
    <use transform="translate(545,323)" width="4200" height="2940" xlink:href="#b"/>
    <use transform="translate(368,477)" width="4200" height="2940" xlink:href="#b"/>
    <use transform="translate(367,551)" width="4200" height="2940" xlink:href="#a"/>
    <use transform="translate(441,419)" width="4200" height="2940" xlink:href="#a"/>
    <use transform="translate(500,382)" width="4200" height="2940" xlink:href="#b"/>
    <use transform="translate(365,405)" width="4200" height="2940" xlink:href="#a"/>
    <use transform="translate(-280,30)" width="4200" height="2940" xlink:href="#b"/>
    <use transform="translate(200,-37)" width="4200" height="2940" xlink:href="#a"/>
    <use transform="translate(0,330)" width="4200" height="2940" xlink:href="#c"/>
    <use transform="translate(85,184)" width="4200" height="2940" xlink:href="#b"/>
    <use transform="translate(0,118)" width="4200" height="2940" xlink:href="#b"/>
    <use transform="translate(-74,184)" width="4200" height="2940" xlink:href="#a"/>
    <use transform="translate(-37,235)" width="4200" height="2940" xlink:href="#h"/>
    <use transform="translate(220,495)" width="4200" height="2940" xlink:href="#b"/>
    <use transform="translate(283,430)" width="4200" height="2940" xlink:href="#a"/>
    <use transform="translate(162,412)" width="4200" height="2940" xlink:href="#a"/>
    <use transform="translate(-295,390)" width="4200" height="2940" xlink:href="#c"/>
    <use transform="translate(0,575)" width="4200" height="2940" xlink:href="#n"/>
   </g>
  </g>
  <path transform="matrix(5.8333 0 0 5.8333 -2100 -1470)" d="m358.25-4.2812c-128.31 0-234.16 96.925-249.53 222.12 67.909 32.587 153.98 52.094 247.66 52.094 95.299 0 182.75-20.198 251.19-53.812-16.13-124.37-121.59-220.41-249.31-220.41z" fill="url(#p)" opacity=".65333"/>
  <path transform="matrix(5.8333 0 0 6.3636 -2218.3 -1756.5)" d="m479.44 475.7c0 16.218-43.504 29.364-97.169 29.364s-97.17-13.147-97.17-29.364 43.504-29.364 97.17-29.364 97.169 13.147 97.169 29.364z" fill="url(#o)" opacity=".65333"/>
 </g>
</svg>
